<svg id="vector" xmlns="http://www.w3.org/2000/svg" width="32" height="31.319284" viewBox="0 0 20.026 19.6"><path fill="#000000FF" d="m16.553,11.68h-3.813l3.283,-3.283c0.741,-0.741 0.741,-1.906 0,-2.648l-2.013,-2.013c-0.741,-0.741 -1.906,-0.741 -2.648,0l-3.283,3.283v-3.813c0,-1.059 -0.847,-1.906 -1.906,-1.906h-2.754c-1.059,0 -1.906,0.847 -1.906,1.906h0v13.187c0,1.059 0.847,1.906 1.906,1.906h13.187c1.059,0 1.906,-0.847 1.906,-1.906v-2.807c-0.053,-1.112 -0.9,-1.906 -1.959,-1.906ZM12.052,4.372c0.371,-0.371 0.953,-0.371 1.324,0l2.013,2.013c0.371,0.371 0.371,0.953 0,1.324l-3.919,3.919h-3.336v-3.336l3.919,-3.919ZM2.466,16.34L2.466,3.207c0,-0.53 0.424,-0.953 0.953,-0.953h2.807c0.53,0 0.953,0.424 0.953,0.953v13.187c0,0.53 -0.424,0.953 -0.953,0.953h-2.807c-0.53,-0.053 -0.953,-0.477 -0.953,-1.006ZM17.507,16.34c0,0.53 -0.424,0.953 -0.953,0.953L7.868,17.294c0.053,-0.053 0.053,-0.106 0.106,-0.159v-0.053c0.053,-0.106 0.053,-0.212 0.106,-0.318v-0.106c0,-0.106 0.053,-0.212 0.053,-0.318v-3.76h8.474c0.53,0 0.953,0.424 0.953,0.953l-0.053,2.807Z" id="path_0"/><path fill="#00000000" d="M4.813,15.3m-1.25,0a1.25,1.25 0,1 1,2.5 0a1.25,1.25 0,1 1,-2.5 0" stroke="#000" stroke-width=".5" id="path_1"/></svg>