<svg id="vector" xmlns="http://www.w3.org/2000/svg" width="32" height="32" viewBox="0 0 24 24"><path fill="#000000FF" d="m17.994,2.286a9,9 0,0 0,-14.919 5.536,8.938 8.938,0 0,0 2.793,7.761 6.263,6.263 0,0 1,2.132 4.566v0.161a3.694,3.694 0,0 0,3.69 3.69h0.62a3.694,3.694 0,0 0,3.69 -3.69v-0.549a5.323,5.323 0,0 1,1.932 -4,8.994 8.994,0 0,0 0.062,-13.477zM12.31,22h-0.62a1.692,1.692 0,0 1,-1.69 -1.69s-0.007,-0.26 -0.008,-0.31h4.008v0.31a1.692,1.692 0,0 1,-1.69 1.69zM16.61,14.259a7.667,7.667 0,0 0,-2.364 3.741h-1.246v-7.184a3,3 0,0 0,2 -2.816,1 1,0 0,0 -2,0 1,1 0,0 1,-2 0,1 1,0 0,0 -2,0 3,3 0,0 0,2 2.816v7.184h-1.322a8.634,8.634 0,0 0,-2.448 -3.881,7 7,0 0,1 3.951,-12.073 7.452,7.452 0,0 1,0.828 -0.046,6.921 6.921,0 0,1 4.652,1.778 6.993,6.993 0,0 1,-0.048 10.481z" id="path_0"/></svg>