<?xml version="1.0" encoding="UTF-8"?>
<svg xmlns="http://www.w3.org/2000/svg" id="Layer_1" data-name="Layer 1" viewBox="0 0 24 24" width="512" height="512"><path d="M19,2H5C2.24,2,0,4.24,0,7v10c0,2.76,2.24,5,5,5h7c.55,0,1-.45,1-1s-.45-1-1-1H5c-1.65,0-3-1.35-3-3V9H22v5c0,.55,.45,1,1,1s1-.45,1-1V7c0-2.76-2.24-5-5-5ZM2,7c0-1.65,1.35-3,3-3h14c1.65,0,3,1.35,3,3H2Zm14.41,5.17c-.76-.76-1.76-1.17-2.83-1.17h-1.59c-.55,0-1,.45-1,1v1.59c0,1.07,.42,2.07,1.17,2.83l6.71,6.71c.57,.57,1.32,.88,2.12,.88s1.55-.31,2.12-.88,.88-1.32,.88-2.12-.31-1.55-.88-2.12l-6.71-6.71Zm5.29,9.54c-.38,.38-1.04,.38-1.41,0l-6.71-6.71c-.38-.38-.59-.88-.59-1.41v-.59h.59c.53,0,1.04,.21,1.41,.59l6.71,6.71c.19,.19,.29,.44,.29,.71s-.1,.52-.29,.71Z"/></svg>
