<svg id="vector" xmlns="http://www.w3.org/2000/svg" width="32" height="32" viewBox="0 0 24 24"><path fill="#000000FF" d="M4.395,16.061c0.199,-0.041 0.402,-0.061 0.605,-0.061h1L6,0.1C3.672,0.575 2,2.624 2,5v12.025c0.699,-0.527 1.525,-0.86 2.395,-0.964ZM22,18L5,18c-1.657,0 -3,1.343 -3,3s1.343,3 3,3h12c2.761,0 5,-2.239 5,-5v-1ZM22,5v11L8,16L8,0h5L13,10.348c0,0.623 0.791,0.89 1.169,0.395l1.331,-1.743 1.331,1.743c0.378,0.495 1.169,0.228 1.169,-0.395L18,0.101c2.282,0.463 4,2.48 4,4.899Z" id="path_0"/></svg>