<svg xmlns="http://www.w3.org/2000/svg" viewBox="2 2 20 20">
	<path d="M 14 13 a 1 1 0 0 0 -1 1 a 1 1 0 0 0 1 1 a 1 1 0 0 0 1 -1 a 1 1 0 0 0 -1 -1 m 0 3.5 a 0.5 0.5 0 0 0 -0.5 0.5 a 0.5 0.5 0 0 0 0.5 0.5 a 0.5 0.5 0 0 0 0.5 -0.5 a 0.5 0.5 0 0 0 -0.5 -0.5 M 12 20 a 8 8 0 0 1 -8 -8 a 8 8 0 0 1 8 -8 a 8 8 0 0 1 8 8 a 8 8 0 0 1 -8 8 m 0 -18 A 10 10 0 0 0 2 12 a 10 10 0 0 0 10 10 a 10 10 0 0 0 10 -10 A 10 10 0 0 0 12 2 m 5 7.5 a 0.5 0.5 0 0 0 -0.5 0.5 a 0.5 0.5 0 0 0 0.5 0.5 a 0.5 0.5 0 0 0 0.5 -0.5 a 0.5 0.5 0 0 0 -0.5 -0.5 m 0 4 a 0.5 0.5 0 0 0 -0.5 0.5 a 0.5 0.5 0 0 0 0.5 0.5 a 0.5 0.5 0 0 0 0.5 -0.5 a 0.5 0.5 0 0 0 -0.5 -0.5 m -3 -6 a 0.5 0.5 0 0 0 0.5 -0.5 a 0.5 0.5 0 0 0 -0.5 -0.5 a 0.5 0.5 0 0 0 -0.5 0.5 a 0.5 0.5 0 0 0 0.5 0.5 M 14 9 a 1 1 0 0 0 -1 1 a 1 1 0 0 0 1 1 a 1 1 0 0 0 1 -1 a 1 1 0 0 0 -1 -1 m -4 -1.5 a 0.5 0.5 0 0 0 0.5 -0.5 a 0.5 0.5 0 0 0 -0.5 -0.5 a 0.5 0.5 0 0 0 -0.5 0.5 a 0.5 0.5 0 0 0 0.5 0.5 m -3 6 a 0.5 0.5 0 0 0 -0.5 0.5 a 0.5 0.5 0 0 0 0.5 0.5 a 0.5 0.5 0 0 0 0.5 -0.5 a 0.5 0.5 0 0 0 -0.5 -0.5 m 3 3 a 0.5 0.5 0 0 0 -0.5 0.5 a 0.5 0.5 0 0 0 0.5 0.5 a 0.5 0.5 0 0 0 0.5 -0.5 a 0.5 0.5 0 0 0 -0.5 -0.5 m -3 -7 a 0.5 0.5 0 0 0 -0.5 0.5 a 0.5 0.5 0 0 0 0.5 0.5 a 0.5 0.5 0 0 0 0.5 -0.5 a 0.5 0.5 0 0 0 -0.5 -0.5 m 3 3.5 a 1 1 0 0 0 -1 1 a 1 1 0 0 0 1 1 a 1 1 0 0 0 1 -1 a 1 1 0 0 0 -1 -1 m 0 -4 a 1 1 0 0 0 -1 1 a 1 1 0 0 0 1 1 a 1 1 0 0 0 1 -1 a 1 1 0 0 0 -1 -1 Z" fill="#000000"/>
</svg>