<svg id="vector" xmlns="http://www.w3.org/2000/svg" width="32" height="32" viewBox="0 0 24 24"><path fill="#000000FF" d="M20,0L4,0A4,4 0,0 0,0 4L0,16a4,4 0,0 0,4 4L6.9,20l4.451,3.763a1,1 0,0 0,1.292 0L17.1,20L20,20a4,4 0,0 0,4 -4L24,4A4,4 0,0 0,20 0ZM22,16a2,2 0,0 1,-2 2L17.1,18a2,2 0,0 0,-1.291 0.473L12,21.69 8.193,18.473h0A2,2 0,0 0,6.9 18L4,18a2,2 0,0 1,-2 -2L2,4A2,2 0,0 1,4 2L20,2a2,2 0,0 1,2 2Z" id="path_0"/><path fill="#000000FF" d="M7,7h5a1,1 0,0 0,0 -2H7A1,1 0,0 0,7 7Z" id="path_1"/><path fill="#000000FF" d="M17,9H7a1,1 0,0 0,0 2H17a1,1 0,0 0,0 -2Z" id="path_2"/><path fill="#000000FF" d="M17,13H7a1,1 0,0 0,0 2H17a1,1 0,0 0,0 -2Z" id="path_3"/></svg>