<svg id="vector" xmlns="http://www.w3.org/2000/svg" width="32" height="32" viewBox="0 0 24 24"><path fill="#000000FF" d="M19,9L14,9a5.006,5.006 0,0 0,-5 5v5a5.006,5.006 0,0 0,5 5h5a5.006,5.006 0,0 0,5 -5L24,14A5.006,5.006 0,0 0,19 9ZM14,15a1,1 0,1 1,1 -1A1,1 0,0 1,14 15ZM19,20a1,1 0,1 1,1 -1A1,1 0,0 1,19 20ZM15.6,5 L12.069,1.462A5.006,5.006 0,0 0,5 1.462L1.462,5a5.006,5.006 0,0 0,0 7.071L5,15.6a4.961,4.961 0,0 0,2 1.223L7,14a7.008,7.008 0,0 1,7 -7h2.827A4.961,4.961 0,0 0,15.6 5ZM5,10A1,1 0,1 1,6 9,1 1,0 0,1 5,10ZM9,6a1,1 0,1 1,1 -1A1,1 0,0 1,9 6Z" id="path_0"/></svg>