<?xml version="1.0" encoding="utf-8"?>
<!-- Generator: Adobe Illustrator 27.3.1, SVG Export Plug-In . SVG Version: 6.00 Build 0)  -->
<svg version="1.1" id="Слой_1" xmlns="http://www.w3.org/2000/svg" xmlns:xlink="http://www.w3.org/1999/xlink" x="0px" y="0px"
	 viewBox="0 0 100 100" style="enable-background:new 0 0 100 100;" xml:space="preserve">
<path d="M62.9,58.1h-3.8c-0.3,0-0.5-0.1-0.7-0.3l-7.1-7.1c-0.4-0.4-0.4-1,0-1.4l7.1-7.1c0.2-0.2,0.4-0.3,0.7-0.3h3.8
	c0.5,0,1,0.4,1,1v4.7c0,0.9,1.1,1.3,1.7,0.7l8.9-8.9c0.4-0.4,0.4-1,0-1.4l-8.9-8.9c-0.6-0.6-1.7-0.2-1.7,0.7v4.7c0,0.5-0.4,1-1,1
	h-5.5c-0.9,0-1.7,0.4-2.3,1l-8.3,8.3c-0.4,0.4-1,0.4-1.4,0l-8.3-8.3c-0.6-0.6-1.4-1-2.3-1h-8.7c-0.5,0-1,0.4-1,1v4.5
	c0,0.5,0.4,1,1,1h7c0.3,0,0.5,0.1,0.7,0.3l7.1,7.1c0.4,0.4,0.4,1,0,1.4l-7.1,7.1c-0.2,0.2-0.4,0.3-0.7,0.3h-7c-0.5,0-1,0.4-1,1v4.5
	c0,0.5,0.4,1,1,1h8.7c0.8,0,1.6-0.3,2.3-1l8.3-8.3c0.4-0.4,1-0.4,1.4,0l8.3,8.3c0.6,0.6,1.5,1,2.3,1h5.5c0.5,0,1,0.4,1,1v4.7
	c0,0.9,1.1,1.3,1.7,0.7l8.9-8.9c0.4-0.4,0.4-1,0-1.4l-8.9-8.9c-0.6-0.6-1.7-0.2-1.7,0.7v4.7C63.9,57.6,63.5,58.1,62.9,58.1z"/>
</svg>
