<?xml version="1.0" encoding="utf-8"?>
<!-- Generator: Adobe Illustrator 27.3.1, SVG Export Plug-In . SVG Version: 6.00 Build 0)  -->
<svg version="1.1" id="het" xmlns="http://www.w3.org/2000/svg" xmlns:xlink="http://www.w3.org/1999/xlink" x="0px" y="0px"
	 viewBox="0 0 100 100" style="enable-background:new 0 0 100 100;" xml:space="preserve">
<path d="M74.8,22.4l-0.1-2.6c0-1.4-1.2-2.5-2.5-2.5h-0.1l-1.4,0l-0.7,0l-0.4,0L62,17.7c-1.4,0-2.5,1.2-2.4,2.6v0
	c0,1.4,1.2,2.5,2.6,2.5l2.9-0.1l-7.4,7.9c-2-1.3-4.5-2-7.1-2v0c-5.8-0.2-11,3.4-13,8.5c-2.8,0.1-5.6,1.1-7.9,3.1
	c-5.6,4.7-6.4,13.1-1.7,18.7c1.9,2.3,4.4,3.8,7.1,4.4l0.1,7.4h-2.9c-1,0-1.8,0.5-2.3,1.3c-0.6,1-0.7,2.1-0.3,3.1
	c0.4,1,1.4,1.7,2.5,1.7l0,0h3.2l0,3.5c0,0.7,0.4,1.3,0.9,1.7c1.4,1,3,0.9,4.4-0.1c0.5-0.4,0.8-1,0.8-1.6l-0.1-3.4h2.9
	c1.1,0,2-0.6,2.4-1.6c0.4-0.9,0.4-1.8,0.1-2.7c-0.4-1.1-1.4-1.7-2.5-1.7h-3l-0.1-7.4c2-0.5,3.9-1.4,5.5-2.7c1.8-1.5,3.1-3.4,3.9-5.5
	c7.3,0,13.2-6,13.2-13.3c0-2.5-0.7-4.9-2-7l7.9-8.4l0.1,3.7c0,1.4,1.2,2.5,2.6,2.5c1.4,0,2.5-1.2,2.5-2.6v0L74.8,22.4L74.8,22.4z
	 M43.7,56.9L43.7,56.9c-3.5,3.1-8.8,2.9-12-0.6c-3.1-3.5-2.9-8.8,0.6-11.9c0.2-0.2,0.4-0.3,0.6-0.5c1.2-1,2.5-1.6,3.9-1.8
	c0.1,5.7,3.8,10.6,8.9,12.4C45.2,55.3,44.6,56.2,43.7,56.9L43.7,56.9z M41.8,42.6c1.1,0.5,2.2,1.3,3,2.3c1.1,1.3,1.8,3,1.9,4.6
	C44,48.3,42.1,45.8,41.8,42.6z M51.6,50.2c0-2.9-1-5.9-3.1-8.3c-1.6-1.9-3.6-3.2-5.8-4c1.3-2.5,4-4.3,7-4.4c0.3,0,0.6,0,0.8,0
	c4.7,0.2,8.2,4.2,8,8.9C58.4,46.3,55.5,49.5,51.6,50.2L51.6,50.2z"/>
</svg>
