<?xml version="1.0" encoding="utf-8"?>
<!-- Generator: Adobe Illustrator 27.3.1, SVG Export Plug-In . SVG Version: 6.00 Build 0)  -->
<svg version="1.1" id="Слой_1" xmlns="http://www.w3.org/2000/svg" xmlns:xlink="http://www.w3.org/1999/xlink" x="0px" y="0px"
	 viewBox="0 0 100 100" style="enable-background:new 0 0 100 100;" xml:space="preserve">
<path d="M74,69.6l-9.8-9.8l7.2-7.1c0.6-0.6,0.6-1.6,0-2.2c0,0,0,0,0,0l-3.1-3.1c-0.6-0.6-1.6-0.6-2.2,0c0,0,0,0,0,0l-5.1,5.2l-27-27
	c-0.3-0.3-0.7-0.5-1.1-0.5h-6.2c-0.9,0-1.6,0.7-1.6,1.6v6.2c0,0.4,0.2,0.8,0.5,1.1l26.9,27L47.3,66c-0.6,0.6-0.6,1.6,0,2.2l3.1,3.1
	c0.6,0.6,1.6,0.6,2.2,0c0,0,0,0,0,0l7.1-7.1l9.8,9.8c1.2,1.3,3.1,1.4,4.4,0.2c1.3-1.2,1.4-3.1,0.2-4.4C74.1,69.7,74,69.6,74,69.6
	L74,69.6z M54.6,59.3L27.3,32l1.6-1.6l27.3,27.3L54.6,59.3z"/>
</svg>
