<?xml version="1.0" encoding="utf-8"?>
<!-- Generator: Adobe Illustrator 27.3.1, SVG Export Plug-In . SVG Version: 6.00 Build 0)  -->
<svg version="1.1" id="Слой_1" xmlns="http://www.w3.org/2000/svg" xmlns:xlink="http://www.w3.org/1999/xlink" x="0px" y="0px"
	 viewBox="0 0 100 100" style="enable-background:new 0 0 100 100;" xml:space="preserve">
<path d="M37.5,43.7V28.2c0,0,0,0,0,0h20.2c0,0,0,0,0,0l4.7,4.7c0,0,0,0,0,0v10.9c0,0,0,0,0,0h3c0,0,0,0,0,0V32.8v-1.5c0,0,0,0,0,0
	L59.4,25c0,0,0,0,0,0H36c0,0,0,0,0,0l-1.5,1.5c0,0,0,0,0,0v17.1c0,0,0,0,0,0L37.5,43.7C37.5,43.8,37.5,43.7,37.5,43.7z M75,65.6
	l-7.8-12.4c0,0,0-0.1,0-0.1h4.6c0,0,0,0,0,0v-6.2c0,0,0,0,0,0H28.2c0,0,0,0,0,0v6.2c0,0,0,0,0,0h4.6c0,0,0.1,0,0,0.1L25,65.6
	c0,0,0,0,0,0v7.8c0,0,0,0,0,0l1.5,1.5c0,0,0,0,0,0h46.8c0,0,0,0,0,0l1.5-1.5c0,0,0,0,0,0v-6.2L75,65.6C75,65.6,75,65.6,75,65.6z
	 M57.8,53.1l3,0c0.8,0,1.6,0.5,1.7,1.3c0.1,1-0.6,1.8-1.5,1.8l-3,0c-0.8,0-1.6-0.5-1.7-1.3C56.1,54,56.9,53.1,57.8,53.1z M57.8,59.4
	l3,0c0.8,0,1.6,0.5,1.7,1.3c0.1,1-0.6,1.8-1.5,1.8l-3,0c-0.8,0-1.6-0.5-1.7-1.3C56.1,60.2,56.9,59.4,57.8,59.4z M48.4,53.1l3,0
	c0.8,0,1.6,0.5,1.7,1.3c0.1,1-0.6,1.8-1.5,1.8l-3,0c-0.8,0-1.6-0.5-1.7-1.3C46.8,54,47.5,53.1,48.4,53.1z M48.4,59.4l3,0
	c0.8,0,1.6,0.5,1.7,1.3c0.1,1-0.6,1.8-1.5,1.8l-3,0c-0.8,0-1.6-0.5-1.7-1.3C46.8,60.2,47.5,59.4,48.4,59.4z M39.1,53.1l3,0
	c0.8,0,1.6,0.5,1.7,1.3c0.1,1-0.6,1.8-1.5,1.8l-3,0c-0.8,0-1.6-0.5-1.7-1.3C37.4,54,38.1,53.1,39.1,53.1z M39.1,59.4l3,0
	c0.8,0,1.6,0.5,1.7,1.3c0.1,1-0.6,1.8-1.5,1.8l-3,0c-0.8,0-1.6-0.5-1.7-1.3C37.4,60.2,38.1,59.4,39.1,59.4z M67.2,68.8l-34.3,0
	c-0.8,0-1.6-0.5-1.7-1.3c-0.1-1,0.6-1.8,1.5-1.8l34.3,0c0.8,0,1.6,0.5,1.7,1.3C68.9,67.9,68.1,68.8,67.2,68.8z M42.2,34.4l12.4,0
	c0.8,0,1.6-0.5,1.7-1.3c0.1-1-0.6-1.8-1.5-1.8l-12.4,0c-0.8,0-1.6,0.5-1.7,1.3C40.5,33.5,41.2,34.4,42.2,34.4z M57.8,37.5l-15.5,0
	c-0.8,0-1.6,0.5-1.7,1.3c-0.1,1,0.6,1.8,1.5,1.8l15.5,0c0.8,0,1.6-0.5,1.7-1.3C59.5,38.3,58.8,37.5,57.8,37.5z"/>
</svg>
