<?xml version="1.0" encoding="utf-8"?>
<!-- Generator: Adobe Illustrator 27.3.1, SVG Export Plug-In . SVG Version: 6.00 Build 0)  -->
<svg version="1.1" id="femslash" xmlns="http://www.w3.org/2000/svg" xmlns:xlink="http://www.w3.org/1999/xlink" x="0px" y="0px"
	 viewBox="0 0 100 100" style="enable-background:new 0 0 100 100;" xml:space="preserve">
<path d="M75.3,22.7c-0.1-1.8-1.2-2.9-2.9-3.4c-0.6-0.2-1.2,0-1.7,0.4l-2.7,2.2l-1.8-2.2c-0.7-0.8-1.8-1.2-2.8-0.9
	c-1,0.3-1.7,0.8-2.2,1.6c-0.6,0.9-0.5,2.1,0.2,3l1.9,2.3l-5.2,4.2c-2.2-1.6-5-2.6-8-2.6v0c-5.8-0.2-11,3.4-13,8.5
	c-2.8,0.1-5.6,1.1-7.9,3.1c-5.6,4.7-6.4,13.1-1.7,18.7c1.9,2.3,4.4,3.8,7.1,4.4l0.1,7.4H32c-0.9,0-1.8,0.5-2.3,1.3
	c-0.6,1.1-0.7,2.1-0.3,3.1c0.4,1,1.4,1.7,2.5,1.7l0,0h3.2l0,3.5c0,0.7,0.4,1.3,0.9,1.7c1.4,1,3,0.9,4.4-0.1c0.5-0.4,0.8-1,0.8-1.6
	l0-3.4H44c1,0,2-0.6,2.4-1.6c0.4-0.9,0.4-1.8,0.1-2.7c-0.4-1-1.4-1.7-2.5-1.7h-3L41,62.1c2-0.5,3.9-1.4,5.5-2.7
	c1.8-1.5,3.1-3.4,3.9-5.5c7.3,0,13.2-6,13.2-13.3c0-2.2-0.5-4.2-1.4-6l5-4.1l1.8,2.3c0.6,0.7,1.5,1.1,2.5,1c1.2-0.2,2.1-0.8,2.6-1.7
	c0.5-0.9,0.5-2.1-0.2-3v0l-2-2.5l2.7-2.2C75.1,24,75.3,23.4,75.3,22.7L75.3,22.7z M43.4,55.7L43.4,55.7c-3.5,3.1-8.8,2.9-12-0.6
	c-3.1-3.5-2.9-8.8,0.6-11.9c0.2-0.2,0.4-0.3,0.6-0.5c1.2-1,2.5-1.6,3.9-1.8c0.1,5.7,3.8,10.6,8.9,12.4C44.9,54.1,44.2,55,43.4,55.7
	L43.4,55.7z M41.5,41.4c1.1,0.5,2.2,1.3,3,2.3c1.1,1.3,1.8,3,1.9,4.6C43.7,47.1,41.8,44.5,41.5,41.4z M51.3,49c0-2.9-1-5.9-3.1-8.3
	c-1.6-1.9-3.6-3.2-5.8-4c1.3-2.5,4-4.3,7-4.4c0.3,0,0.6,0,0.8,0c4.7,0.2,8.2,4.2,8,8.9C58.1,45.1,55.1,48.3,51.3,49L51.3,49z"/>
</svg>
