<svg id="vector" xmlns="http://www.w3.org/2000/svg" width="32" height="32" viewBox="0 0 512 512"><path fill="#000000FF" d="M188.82,377.6c37.49,37.49 98.27,37.49 135.76,0c0,0 0,-0 0,-0l68.52,-68.52c12.71,-12.28 13.06,-32.54 0.79,-45.25c-12.28,-12.71 -32.54,-13.06 -45.25,-0.79c-0.27,0.26 -0.53,0.52 -0.79,0.79l-59.37,59.35L288,32c0,-17.67 -14.33,-32 -32,-32l0,0c-17.67,0 -32,14.33 -32,32l0.45,290.71l-58.9,-58.9c-12.71,-12.28 -32.97,-11.93 -45.25,0.79c-11.98,12.4 -11.98,32.06 0,44.46L188.82,377.6z" id="path_0"/><path fill="#000000FF" d="M480,309.33c-17.67,0 -32,14.33 -32,32v97.94c-0.01,4.81 -3.91,8.71 -8.73,8.73H72.72c-4.81,-0.01 -8.71,-3.91 -8.73,-8.73v-97.94c0,-17.67 -14.33,-32 -32,-32s-32,14.33 -32,32v97.94C0.05,479.42 32.58,511.95 72.72,512h366.55c40.15,-0.05 72.68,-32.58 72.72,-72.72v-97.94C512,323.66 497.67,309.33 480,309.33z" id="path_1"/></svg>