<svg id="vector" xmlns="http://www.w3.org/2000/svg" width="32" height="32" viewBox="0 0 512 512"><path fill="#000000FF" d="M487.06,195.67l-82.75,-82.75c-8.48,-8.19 -21.98,-7.95 -30.17,0.52c-7.99,8.27 -7.99,21.37 0,29.64l82.75,82.75c2.46,2.51 4.61,5.3 6.4,8.32c-0.32,0 -0.58,-0.17 -0.9,-0.17l0,0l-334.59,0.68c-11.78,0 -21.33,9.55 -21.33,21.33c0,11.78 9.55,21.33 21.33,21.33l0,0l334.46,-0.68c0.6,0 1.09,-0.3 1.66,-0.34c-1.89,3.61 -4.29,6.93 -7.13,9.86l-82.75,82.75c-8.48,8.19 -8.71,21.69 -0.52,30.17c8.19,8.48 21.69,8.71 30.17,0.52c0.18,-0.17 0.35,-0.35 0.52,-0.52l82.75,-82.75c33.31,-33.32 33.31,-87.34 0,-120.66L487.06,195.67z" id="path_0"/><path fill="#000000FF" d="M149.37,469.33h-42.67c-35.35,0 -64,-28.65 -64,-64V106.67c0,-35.35 28.65,-64 64,-64h42.67c11.78,0 21.33,-9.55 21.33,-21.33S161.16,0 149.37,0h-42.67C47.83,0.07 0.11,47.79 0.04,106.67v298.67C0.11,464.21 47.83,511.93 106.71,512h42.67c11.78,0 21.33,-9.55 21.33,-21.33C170.71,478.89 161.16,469.33 149.37,469.33z" id="path_1"/></svg>