<svg id="vector" xmlns="http://www.w3.org/2000/svg" width="32" height="32" viewBox="0 0 512.19 512.19"><path fill="#000000FF" d="M256.1,256.1m-85.33,0a85.33,85.33 0,1 1,170.67 0a85.33,85.33 0,1 1,-170.67 0" id="path_0"/><path fill="#000000FF" d="M496.54,201.03C463.45,147.15 388.19,56.74 256.1,56.74S48.74,147.15 15.65,201.03c-20.86,33.74 -20.86,76.38 0,110.12c33.09,53.89 108.35,144.3 240.45,144.3s207.36,-90.41 240.45,-144.3C517.41,277.41 517.41,234.78 496.54,201.03zM256.1,384.1c-70.69,0 -128,-57.31 -128,-128s57.31,-128 128,-128s128,57.31 128,128C384.02,326.76 326.76,384.02 256.1,384.1z" id="path_1"/></svg>