<svg id="vector" xmlns="http://www.w3.org/2000/svg" width="32" height="32" viewBox="0 0 24 24"><path fill="#000000FF" d="M16.773,2.9c-0.747,-0.634 -1.53,-1.3 -2.327,-2.024A3.354,3.354 0,0 0,11.731 0.031,3.264 3.264,0 0,0 9.4,1.516h0a18.708,18.708 0,0 0,-2.126 5.02,2.458 2.458,0 0,0 -3.795,-0.163 9.159,9.159 0,0 0,-2.61 6.493A11.024,11.024 0,0 0,9.133 23.64,11.667 11.667,0 0,0 11.99,24 11.122,11.122 0,0 0,23.127 12.874C23.127,8.3 20.183,5.8 16.773,2.9ZM16.991,19.286a7.974,7.974 0,0 1,-0.9 0.6,4.486 4.486,0 0,0 0.44,-1.919c0,-1.927 -1.343,-4.164 -3,-6.125a2.025,2.025 0,0 0,-3.079 0C8.1,14.6 6.627,17.582 8,20a8.1,8.1 0,0 1,-4.129 -7.127,5.951 5.951,0 0,1 1.345,-3.9q0.212,0.348 0.455,0.673a2.3,2.3 0,0 0,2.375 0.87,2.364 2.364,0 0,0 1.8,-1.826 17.255,17.255 0,0 1,2.091 -5.567A0.259,0.259 0,0 1,12.132 3a0.367,0.367 0,0 1,0.295 0.093c0.824,0.749 1.633,1.437 2.405,2.091 3.189,2.708 5.295,4.5 5.295,7.686A8.081,8.081 0,0 1,16.991 19.288Z" id="path_0"/></svg>