<?xml version="1.0" encoding="UTF-8" standalone="no"?>
<svg
    id="Layer_1"
    data-name="Layer 1"
    viewBox="0 0 24 24"
    width="512"
    height="512"
    version="1.1"
    xmlns="http://www.w3.org/2000/svg">
  <defs
          id="defs1"/>
  <path
          d="m 23,23 c -0.55,0 -1,-0.45 -1,-1 v -8 c 0,-1.65 -1.35,-3 -3,-3 H 2.58 l 5.14,5.3 C 8.1,16.7 8.09,17.33 7.7,17.71 7.3,18.09 6.67,18.09 6.29,17.69 L 0.88,12.12 C -0.29,10.95 -0.29,9.05 0.87,7.89 L 6.28,2.3 C 6.48,2.1 6.74,2 7,2 7.26,2 7.5,2.09 7.7,2.28 8.1,2.66 8.11,3.3 7.72,3.69 L 2.58,8.99 H 19 c 2.76,0 5,2.24 5,5 V 22 c 0,0.55 -0.45,1 -1,1 z"
          id="path1"/>
</svg>
