<?xml version="1.0" encoding="UTF-8" standalone="no"?>
<svg
   viewBox="0 1.999 32 30"
   version="1.1"
   id="svg1"
   sodipodi:docname="My path.svg"
   inkscape:version="1.3.2 (091e20ef0f, 2023-11-25, custom)"
   xml:space="preserve"
   xmlns:inkscape="http://www.inkscape.org/namespaces/inkscape"
   xmlns:sodipodi="http://sodipodi.sourceforge.net/DTD/sodipodi-0.dtd"
   xmlns="http://www.w3.org/2000/svg"
   xmlns:svg="http://www.w3.org/2000/svg"><defs
     id="defs1"><inkscape:path-effect
       effect="fillet_chamfer"
       id="path-effect2"
       is_visible="true"
       lpeversion="1"
       nodesatellites_param="F,0,0,1,0,0.3,0,1 @ F,0,0,1,0,0.8,0,1 @ F,0,0,1,0,0.3,0,1 @ F,0,0,1,0,0.8,0,1 @ F,0,0,1,0,0.8,0,1 @ F,0,0,1,0,0,0,1 @ F,0,0,1,0,0,0,1 @ F,0,0,1,0,0.8,0,1 @ F,0,0,1,0,0.8,0,1 @ F,0,0,1,0,0.8,0,1 | F,0,0,1,0,0,0,1 @ F,0,0,1,0,0.8,0,1 @ F,0,0,1,0,0,0,1 @ F,0,0,1,0,0.8,0,1 @ F,0,0,1,0,0,0,1 @ F,0,0,1,0,0,0,1 | F,0,0,1,0,0.6,0,1 @ F,0,0,1,0,0.8,0,1 @ F,0,0,1,0,0,0,1 @ F,0,0,1,0,0.8,0,1 @ F,0,0,1,0,0,0,1 | F,0,0,1,0,0.8,0,1 @ F,0,0,1,0,0.8,0,1 @ F,0,0,1,0,0.8,0,1 @ F,0,0,1,0,0.8,0,1"
       radius="0"
       unit="px"
       method="auto"
       mode="F"
       chamfer_steps="1"
       flexible="false"
       use_knot_distance="true"
       apply_no_radius="true"
       apply_with_radius="true"
       only_selected="false"
       hide_knots="false" /><inkscape:path-effect
       effect="fillet_chamfer"
       id="path-effect1"
       is_visible="true"
       lpeversion="1"
       nodesatellites_param="F,0,0,1,0,0,0,1 @ F,0,0,1,0,0.8,0,1 @ F,0,0,1,0,0,0,1 @ F,0,0,1,0,0.8,0,1 @ F,0,0,1,0,0.8,0,1 @ F,0,0,1,0,0,0,1 @ F,0,0,1,0,0,0,1 @ F,0,0,1,0,0.8,0,1 @ F,0,0,1,0,0.8,0,1 @ F,0,0,1,0,0.8,0,1 | F,0,0,1,0,0,0,1 @ F,0,0,1,0,0.8,0,1 @ F,0,0,1,0,0,0,1 @ F,0,0,1,0,0.8,0,1 @ F,0,0,1,0,0,0,1 @ F,0,0,1,0,0,0,1 | F,0,0,1,0,0.8,0,1 @ F,0,0,1,0,0.8,0,1 @ F,0,0,1,0,0,0,1 @ F,0,0,1,0,0.8,0,1 @ F,0,0,1,0,0,0,1 | F,0,0,1,0,0.8,0,1 @ F,0,0,1,0,0.8,0,1 @ F,0,0,1,0,0.8,0,1 @ F,0,0,1,0,0.8,0,1 | F,0,0,1,0,0.6,0,1 @ F,0,0,1,0,0,0,1 @ F,0,0,1,0,0.6,0,1 @ F,0,0,1,0,0.6,0,1 @ F,0,0,1,0,0,0,1 @ F,0,0,1,0,0.6,0,1 @ F,0,0,1,0,0.6,0,1 @ F,0,0,1,0,0,0,1 @ F,0,0,1,0,0.6,0,1 @ F,0,0,1,0,0.6,0,1 @ F,0,0,1,0,0,0,1 @ F,0,0,1,0,0.6,0,1"
       radius="0"
       unit="px"
       method="auto"
       mode="F"
       chamfer_steps="1"
       flexible="false"
       use_knot_distance="true"
       apply_no_radius="true"
       apply_with_radius="true"
       only_selected="false"
       hide_knots="false" /></defs><sodipodi:namedview
     id="namedview1"
     pagecolor="#ffffff"
     bordercolor="#000000"
     borderopacity="0.25"
     inkscape:showpageshadow="2"
     inkscape:pageopacity="0.0"
     inkscape:pagecheckerboard="0"
     inkscape:deskcolor="#d1d1d1"
     showgrid="false"
     inkscape:zoom="8"
     inkscape:cx="0.5"
     inkscape:cy="18.5"
     inkscape:window-width="1920"
     inkscape:window-height="1012"
     inkscape:window-x="0"
     inkscape:window-y="32"
     inkscape:window-maximized="1"
     inkscape:current-layer="svg1" /><path
     d="M 9.7029184,4.3507434 5.5542176,4.9336842 A 0.80005791,0.80005791 127.00371 0 0 4.8732585,5.8372257 L 5.0602781,7.1689154 A 0.34514731,0.34514731 123.00276 0 1 4.8136219,7.5486925 L 0.76900836,8.7084866 A 0.80001055,0.80001055 119.00012 0 0 0.22050323,9.6980113 L 6.3944968,31.229989 A 0.79999347,0.79999347 29.000262 0 0 7.3840095,31.77849 L 26.992,26.156 28.109,25.999 H 31.2 a 0.8,0.8 135 0 0 0.8,-0.8 v -22.4 a 0.8,0.8 45 0 0 -0.8,-0.8 H 10.8 a 0.8,0.8 135 0 0 -0.8,0.8 v 1.21 A 0.34510055,0.34510055 131.00082 0 1 9.7029184,4.3507434 Z M 7.858,29.758 2.4625028,10.941011 A 0.79995708,0.79995708 119.00206 0 1 3.0110232,9.9515384 L 5.357,9.279 7.9906688,28.019785 a 0.80004519,0.80004519 37.002148 0 0 0.903553,0.680929 L 14.096,27.97 7.858,29.759 Z M 9.5614873,26.17084 6.9203503,7.3802128 A 0.79987353,0.79987353 127.00367 0 1 7.6012304,6.4767749 L 10,6.14 V 25.2 a 0.8,0.8 45 0 0 0.8,0.8 h 4.286 l -4.846844,0.681462 A 0.59997466,0.59997466 36.997933 0 1 9.5614873,26.17084 Z M 29.2,24 H 12.8 A 0.8,0.8 45 0 1 12,23.2 V 4.8 A 0.8,0.8 135 0 1 12.8,4 H 29.2 A 0.8,0.8 45 0 1 30,4.8 l 0,18.4 A 0.8,0.8 135 0 1 29.2,24 Z"
     fill="#000000"
     id="path1"
     sodipodi:nodetypes="ccccccccccccccccccccccccccccc"
     style="stroke-width:1.00157;stroke-dasharray:none" /><path
     fill="#000000FF"
     d="m 26.865522,12.487169 a 1.5897874,1.5897874 0 0 0 -1.533778,-1.113203 h -2.184895 l -0.66362,-2.0683714 a 1.6137918,1.6137918 0 0 0 -3.073557,0 l -0.663618,2.0683714 h -2.184895 a 1.6137918,1.6137918 0 0 0 -0.95017,2.916528 l 1.77832,1.300235 -0.676123,2.093876 a 1.5892873,1.5892873 0 0 0 0.592108,1.806831 1.5887871,1.5887871 0 0 0 1.900346,-0.0096 l 1.74081,-1.281232 1.741317,1.279729 a 1.6137918,1.6137918 0 0 0 2.491951,-1.795802 l -0.676122,-2.093891 1.780321,-1.300236 a 1.5887871,1.5887871 0 0 0 0.581605,-1.80335 z m -1.171716,0.99568 -2.072373,1.514772 a 0.50009059,0.50009059 0 0 0 -0.181028,0.5581 l 0.787638,2.435444 a 0.61361086,0.61361086 0 0 1 -0.947669,0.682622 l -2.037869,-1.50027 a 0.50009059,0.50009059 0 0 0 -0.592107,0 l -2.037869,1.50027 A 0.61361086,0.61361086 0 0 1 17.66236,17.991165 l 0.790142,-2.435444 a 0.50009059,0.50009059 0 0 0 -0.181034,-0.5581 l -2.072375,-1.514772 a 0.61361086,0.61361086 0 0 1 0.362066,-1.1087 h 2.550459 a 0.50009059,0.50009059 0 0 0 0.476088,-0.347065 l 0.775138,-2.4159352 a 0.61361086,0.61361086 0 0 1 1.168214,0 l 0.77514,2.4159352 a 0.50009059,0.50009059 0 0 0 0.476085,0.347065 h 2.550462 a 0.61361086,0.61361086 0 0 1 0.362065,1.1087 z"
     id="path_0"
     style="stroke-width:0.500091" /></svg>
