<svg id="vector" xmlns="http://www.w3.org/2000/svg" width="32" height="32" viewBox="0 0 24 24"><path fill="#000000FF" d="M7.707,9.256c0.391,0.391 0.391,1.024 0,1.414 -0.391,0.391 -1.024,0.391 -1.414,0 -0.391,-0.391 -0.391,-1.024 0,-1.414 0.391,-0.391 1.024,-0.391 1.414,0ZM21.559,15.341l-0.565,0.565c-0.027,1.233 -0.505,2.457 -1.435,3.399l-3.167,3.208c-0.943,0.955 -2.201,1.483 -3.543,1.487h-0.017c-1.335,0 -2.59,-0.52 -3.534,-1.464L1.882,15.183c-0.65,-0.649 -0.964,-1.542 -0.864,-2.453l0.765,-6.916c0.051,-0.456 0.404,-0.819 0.858,-0.881l6.889,-0.942c0.932,-0.124 1.87,0.193 2.528,0.851l7.475,7.412c0.387,0.387 0.697,0.823 0.931,1.288 0.812,-1.166 0.698,-2.795 -0.342,-3.835L12.531,2.302c-0.229,-0.229 -0.545,-0.335 -0.851,-0.292l-6.889,0.942c-0.549,0.074 -1.052,-0.309 -1.127,-0.855 -0.074,-0.547 0.309,-1.051 0.855,-1.126L11.409,0.028c0.921,-0.131 1.869,0.191 2.528,0.852l7.589,7.405c1.946,1.945 1.957,5.107 0.032,7.057ZM18.121,13.671l-7.475,-7.412c-0.223,-0.223 -0.536,-0.326 -0.847,-0.287l-6.115,0.837 -0.679,6.14c-0.033,0.303 0.071,0.601 0.287,0.816l7.416,7.353c0.569,0.57 1.322,0.881 2.123,0.881h0.01c0.806,-0.002 1.561,-0.319 2.126,-0.893l3.167,-3.208c1.155,-1.17 1.149,-3.067 -0.014,-4.229Z" id="path_0"/></svg>