<svg id="vector" xmlns="http://www.w3.org/2000/svg" width="32" height="32" viewBox="0 0 24 24"><path fill="#000000FF" d="M17,8L7,8L7,7a5,5 0,0 1,9.375 -2.422,1 1,0 0,0 1.749,-0.971A7,7 0,0 0,5 7L5,8.424A5,5 0,0 0,2 13v6a5.006,5.006 0,0 0,5 5L17,24a5.006,5.006 0,0 0,5 -5L22,13A5.006,5.006 0,0 0,17 8ZM20,19a3,3 0,0 1,-3 3L7,22a3,3 0,0 1,-3 -3L4,13a3,3 0,0 1,3 -3L17,10a3,3 0,0 1,3 3Z" id="path_0"/><path fill="#000000FF" d="M12,14a1,1 0,0 0,-1 1v2a1,1 0,0 0,2 0V15A1,1 0,0 0,12 14Z" id="path_1"/></svg>