<?xml version="1.0" encoding="UTF-8"?>
<svg xmlns="http://www.w3.org/2000/svg" id="Layer_1" data-name="Layer 1" viewBox="0 0 24 24" width="512" height="512"><path d="M20,12V6c0-2.21-1.79-4-4-4H8c-2.21,0-4,1.79-4,4v6c-2.21,0-4,1.79-4,4v2c0,2.21,1.79,4,4,4H20c2.21,0,4-1.79,4-4v-2c0-2.21-1.79-4-4-4ZM6,6c0-1.1,.9-2,2-2h8c1.1,0,2,.9,2,2v10H6V6Zm16,12c0,1.1-.9,2-2,2H4c-1.1,0-2-.9-2-2v-2c0-1.1,.9-2,2-2v3c0,.55,.45,1,1,1h14c.55,0,1-.45,1-1v-3c1.1,0,2,.9,2,2v2Zm-13.71-6.9c-.39-.39-.39-1.02,0-1.41s1.02-.39,1.41,0l1.17,1.17c.2,.2,.51,.19,.71,0l2.71-2.71c.39-.39,1.02-.39,1.41,0s.39,1.02,0,1.41l-2.71,2.71c-.49,.49-1.13,.73-1.77,.73s-1.28-.24-1.77-.73l-1.17-1.17Z"/></svg>
